<svg width="30" height="30" viewBox="0 0 30 30" fill="none" xmlns="http://www.w3.org/2000/svg">
<g id="Linkedin">
<circle id="Oval 1 Copy 5" cx="15" cy="15" r="15" fill="#F8951D"/>
<path id="Fill 182" fill-rule="evenodd" clip-rule="evenodd" d="M9.15697 11.1286C10.1896 11.1286 11.0268 10.3651 11.0268 9.42233C11.0268 8.47869 10.1896 7.71423 9.15697 7.71423C8.1233 7.71423 7.28613 8.47869 7.28613 9.42233C7.28613 10.3651 8.1233 11.1286 9.15697 11.1286Z" fill="black"/>
<path id="Fill 183" fill-rule="evenodd" clip-rule="evenodd" d="M7.71387 22.1047H11.0689V12.4286H7.71387V22.1047Z" fill="black"/>
<path id="Fill 184" fill-rule="evenodd" clip-rule="evenodd" d="M15.7782 16.723C15.7782 15.6134 16.3032 14.5283 17.5585 14.5283C18.8139 14.5283 19.1225 15.6134 19.1225 16.6965V21.9811H22.4625V16.4805C22.4625 12.6588 20.2035 12 18.8139 12C17.4254 12 16.6595 12.4697 15.7782 13.6077V12.305H12.4287V21.9811H15.7782V16.723Z" fill="black"/>
</g>
</svg>
